<?xml version="1.0" encoding="UTF-8" standalone="no"?>
<!-- Created with Inkscape (http://www.inkscape.org/) -->

<svg
   xmlns:dc="http://purl.org/dc/elements/1.1/"
   xmlns:cc="http://creativecommons.org/ns#"
   xmlns:rdf="http://www.w3.org/1999/02/22-rdf-syntax-ns#"
   xmlns:svg="http://www.w3.org/2000/svg"
   xmlns="http://www.w3.org/2000/svg"
   xmlns:sodipodi="http://sodipodi.sourceforge.net/DTD/sodipodi-0.dtd"
   xmlns:inkscape="http://www.inkscape.org/namespaces/inkscape"
   id="svg2"
   sodipodi:version="0.32"
   inkscape:version="0.48+devel r9772"
   width="991"
   height="922"
   version="1.0"
   sodipodi:docname="Simple_Magic_Cube.svg"
   inkscape:output_extension="org.inkscape.output.svg.inkscape">
  <sodipodi:namedview
     inkscape:window-height="851"
     inkscape:window-width="1440"
     inkscape:pageshadow="2"
     inkscape:pageopacity="0.0"
     guidetolerance="10.0"
     gridtolerance="10.0"
     objecttolerance="10.0"
     borderopacity="1.0"
     bordercolor="#666666"
     pagecolor="#ffffff"
     id="base"
     showgrid="false"
     inkscape:zoom="0.61512665"
     inkscape:cx="542.90125"
     inkscape:cy="446.98637"
     inkscape:window-x="0"
     inkscape:window-y="1"
     inkscape:current-layer="svg2"
     showguides="true"
     inkscape:guide-bbox="true"
     inkscape:showpageshadow="false"
     inkscape:window-maximized="1" />
  <metadata
     id="metadata7">
    <rdf:RDF>
      <cc:Work
         rdf:about="">
        <dc:format>image/svg+xml</dc:format>
        <dc:type
           rdf:resource="http://purl.org/dc/dcmitype/StillImage" />
      </cc:Work>
    </rdf:RDF>
  </metadata>
  <defs
     id="defs5">
    <inkscape:perspective
       id="perspective9"
       inkscape:persp3d-origin="372.04724 : 350.78739 : 1"
       inkscape:vp_z="744.09448 : 526.18109 : 1"
       inkscape:vp_y="0 : 1000 : 0"
       inkscape:vp_x="0 : 526.18109 : 1"
       sodipodi:type="inkscape:persp3d" />
  </defs>
  <path
     inkscape:connector-curvature="0"
     style="fill:#333333;stroke:#666666;stroke-width:4;stroke-linecap:butt;stroke-linejoin:miter;stroke-miterlimit:4;stroke-opacity:1;stroke-dasharray:none"
     d="M 8.9799547,44.95775 80.819593,643.15369 497.4053,487.735 495.39418,7.5412724 8.9799547,44.95775 z"
     id="path2431"
     sodipodi:nodetypes="ccccc" />
  <path
     inkscape:connector-curvature="0"
     style="fill:#000000;stroke:#666666;stroke-width:4;stroke-linecap:butt;stroke-linejoin:miter;stroke-miterlimit:4;stroke-opacity:1;stroke-dasharray:none"
     d="M 497.34825,487.71224 80.813453,643.09211 478.81478,911.69552 901.02257,646.80099 497.34825,487.71224 z"
     id="path2389"
     sodipodi:nodetypes="ccccc" />
  <path
     style="fill:#1a1a1a;stroke:#666666;stroke-width:4;stroke-linecap:butt;stroke-linejoin:miter;stroke-miterlimit:4;stroke-opacity:1;stroke-dasharray:none"
     d="M 497.49885,487.78177 495.39417,7.5412723 967.49659,46.080245 901.00484,646.79046 497.49885,487.78177 z"
     id="path2425"
     sodipodi:nodetypes="ccccc"
     inkscape:connector-curvature="0" />
  <g
     id="g3945"
     style="stroke:none;fill:#ffff00">
    <path
       id="text2400"
       d="M 639.43805,16.822012 L 632.15264,16.822012 L 632.15264,-29.602202 C 630.39873,-27.929212 628.09843,-26.256269 625.25175,-24.583368 C 622.40503,-22.910383 619.8484,-21.655676 617.58184,-20.819242 L 617.58184,-27.8618 C 621.65625,-29.777544 625.218,-32.098078 628.2671,-34.823408 C 631.31615,-37.548634 633.47479,-40.192964 634.74301,-42.756403 L 639.43805,-42.756403 L 639.43805,16.822012 z"
       style="font-size:82.89170836999998926px;font-style:normal;font-weight:normal;fill:#ffff00;fill-opacity:1;stroke:none;stroke-width:2.00000000999999994;stroke-linecap:butt;stroke-linejoin:miter;stroke-opacity:1;font-family:Bitstream Vera Sans;stroke-miterlimit:4;stroke-dasharray:none"
       transform="matrix(0.8101543,0.1065,1.1706121e-2,1.2358716,0,0)" />
    <path
       id="text2404"
       d="M 636.09265,6.9123604 L 643.4378,6.2330399 C 644.0605,9.6862641 645.24931,12.191256 647.00423,13.748023 C 648.75913,15.304805 651.00937,16.083193 653.75498,16.083187 C 656.10427,16.083193 658.16346,15.545398 659.93255,14.469801 C 661.70158,13.394218 663.15221,11.95774 664.28445,10.160362 C 665.41661,8.3630057 666.36483,5.9358525 667.1291,2.8788948 C 667.8933,-0.17802599 668.27542,-3.2915752 668.27546,-6.4617622 C 668.27542,-6.8013944 668.26127,-7.3108843 668.233,-7.9902334 C 666.70449,-5.5559747 664.617,-3.5817014 661.97051,-2.0674077 C 659.32396,-0.55306715 656.45808,0.20409142 653.37286,0.20407032 C 648.22133,0.20409142 643.86236,-1.6640381 640.29594,-5.4003239 C 636.7295,-9.1365563 634.94629,-14.061625 634.94629,-20.175545 C 634.94629,-26.487517 636.80734,-31.568263 640.52946,-35.417799 C 644.25156,-39.267221 648.9148,-41.191961 654.51921,-41.192024 C 658.56681,-41.191961 662.26768,-40.102219 665.62186,-37.922794 C 668.97597,-35.74325 671.52342,-32.636777 673.26422,-28.603365 C 675.00493,-24.569854 675.87531,-18.731949 675.87535,-11.089633 C 675.87531,-3.1358978 675.01201,3.1973444 673.28544,7.9101124 C 671.5588,12.622907 668.99012,16.210565 665.5794,18.673097 C 662.16862,21.135634 658.17054,22.366901 653.58515,22.366902 C 648.71667,22.366901 644.73982,21.015338 641.65458,18.312208 C 638.56933,15.609084 636.71535,11.809139 636.09265,6.9123604 L 636.09265,6.9123604 z M 667.38385,-20.557663 C 667.38381,-24.944895 666.21623,-28.426409 663.8811,-31.002216 C 661.54591,-33.577918 658.73664,-34.865795 655.45328,-34.865851 C 652.05666,-34.865795 649.09879,-33.47885 646.57966,-30.705013 C 644.0605,-27.931072 642.80092,-24.336338 642.80094,-19.9208 C 642.80092,-15.95806 643.99681,-12.738367 646.3886,-10.261711 C 648.78035,-7.7849929 651.73115,-6.5466494 655.24099,-6.5466773 C 658.77909,-6.5466494 661.68743,-7.7849929 663.96602,-10.261711 C 666.24454,-12.738367 667.38381,-16.170347 667.38385,-20.557663 L 667.38385,-20.557663 z"
       style="font-size:86.95302581999999347px;font-style:normal;font-weight:normal;fill:#ffff00;fill-opacity:1;stroke:none;stroke-width:1.99999997999999990;stroke-linecap:butt;stroke-linejoin:miter;stroke-opacity:1;font-family:Bitstream Vera Sans;stroke-miterlimit:4;stroke-dasharray:none"
       transform="matrix(0.8414075,0.1034275,0,1.1884848,0,0)" />
    <path
       id="text2408"
       d="M 795.56617,-16.163128 L 786.93385,-16.163128 L 786.93385,-71.170182 C 784.85568,-69.187893 782.1301,-67.205659 778.75713,-65.223474 C 775.38411,-63.24119 772.35481,-61.754515 769.66922,-60.763442 L 769.66922,-69.108017 C 774.4969,-71.377942 778.71714,-74.127493 782.32995,-77.356677 C 785.94271,-80.58574 788.50043,-83.718949 790.00312,-86.756314 L 795.56617,-86.756314 L 795.56617,-16.163128 z"
       style="font-size:98.21660614000001033px;font-style:normal;font-weight:normal;fill:#ffff00;fill-opacity:1;stroke:none;stroke-width:1.99999996000000002;stroke-linecap:butt;stroke-linejoin:miter;stroke-opacity:1;font-family:Bitstream Vera Sans;stroke-miterlimit:4;stroke-dasharray:none"
       transform="matrix(0.8567861,0.1659959,0,1.1671525,0,0)" />
    <path
       id="text2412"
       d="M 793.43062,0.037258193 L 793.43062,-8.6084865 L 840.85728,-8.6084865 L 840.85728,-1.6119301 C 836.19286,3.3523536 831.57014,9.9491001 826.9891,18.178329 C 822.40799,26.40765 818.86807,34.870143 816.36933,43.565834 C 814.57019,49.696164 813.42076,56.40952 812.92103,63.705921 L 803.67558,63.705921 C 803.77552,57.942097 804.90829,50.978865 807.07391,42.816203 C 809.23949,34.653583 812.34629,26.782465 816.39432,19.202825 C 820.4423,11.623274 824.7485,5.2347585 829.31296,0.037258193 L 793.43062,0.037258193 z"
       style="font-size:102.34962463000000810px;font-style:normal;font-weight:normal;fill:#ffff00;fill-opacity:1;stroke:none;stroke-width:2.00000002999999982;stroke-linecap:butt;stroke-linejoin:miter;stroke-opacity:1;font-family:Bitstream Vera Sans;stroke-miterlimit:4;stroke-dasharray:none"
       transform="matrix(0.8852519,5.4583807e-2,-4.2552377e-2,1.1269982,0,0)" />
    <path
       id="text2428"
       d="M 759.01377,274.39639 L 759.01377,259.98209 L 732.89555,259.98209 L 732.89555,253.20613 L 760.36897,214.19305 L 766.40573,214.19305 L 766.40573,253.20613 L 774.53687,253.20613 L 774.53687,259.98209 L 766.40573,259.98209 L 766.40573,274.39639 L 759.01377,274.39639 z M 759.01377,253.20613 L 759.01377,226.06124 L 740.1643,253.20613 L 759.01377,253.20613 z"
       style="font-size:84.10398102000000620px;font-style:normal;font-weight:normal;fill:#ffff00;fill-opacity:1;stroke:none;stroke-width:1.99999993999999992;stroke-linecap:butt;stroke-linejoin:miter;stroke-opacity:1;font-family:Bitstream Vera Sans;stroke-miterlimit:4;stroke-dasharray:none"
       transform="matrix(0.9051843,0.3320729,-2.9057294e-2,1.0940876,0,0)" />
    <path
       id="text2432"
       d="M 595.74403,165.1138 L 602.86128,164.51128 C 603.38847,167.97577 604.61233,170.5804 606.53287,172.32519 C 608.45338,174.06998 610.76931,174.94238 613.48066,174.94238 C 616.74428,174.94238 619.50581,173.71224 621.76528,171.25195 C 624.0247,168.79168 625.15442,165.52804 625.15445,161.46103 C 625.15442,157.59489 624.06863,154.54465 621.89709,152.31029 C 619.72548,150.07598 616.88235,148.95881 613.36769,148.95878 C 611.18354,148.95881 609.21281,149.45463 607.45548,150.44624 C 605.69812,151.43792 604.31735,152.72454 603.31316,154.30613 L 596.94907,153.47766 L 602.29642,125.12165 L 629.74865,125.12165 L 629.74865,131.59872 L 607.71908,131.59872 L 604.74415,146.43573 C 608.05798,144.12612 611.53501,142.97129 615.17524,142.97125 C 619.99536,142.97129 624.06235,144.64077 627.37624,147.97969 C 630.69005,151.31867 632.34697,155.61161 632.34701,160.85851 C 632.34697,165.85441 630.89089,170.17245 627.97875,173.81265 C 624.43893,178.28133 619.60623,180.51567 613.48066,180.51567 C 608.45966,180.51567 604.36128,179.10979 601.18552,176.29804 C 598.00974,173.4863 596.19591,169.75822 595.74403,165.1138 L 595.74403,165.1138 z"
       style="font-size:77.12232971000000248px;font-style:normal;font-weight:normal;fill:#ffff00;fill-opacity:1;stroke:none;stroke-width:1.99999996000000002;stroke-linecap:butt;stroke-linejoin:miter;stroke-opacity:1;font-family:Bitstream Vera Sans;stroke-miterlimit:4;stroke-dasharray:none"
       transform="matrix(0.8324305,0.1304114,3.1477424e-2,1.2062329,0,0)" />
    <path
       id="text2436"
       d="M 1026.1721,-21.362285 L 1015.6255,-20.537411 C 1014.6828,-24.700994 1013.3472,-27.72553 1011.619,-29.611029 C 1008.7515,-32.635492 1005.2164,-34.14776 1001.0135,-34.147839 C 997.63537,-34.14776 994.66975,-33.205048 992.1166,-31.319698 C 988.7778,-28.884281 986.14606,-25.329469 984.22137,-20.65525 C 982.29665,-15.980902 981.29502,-9.3229934 981.21647,-0.68150505 C 983.76964,-4.5701503 986.89238,-7.4572079 990.58469,-9.3426864 C 994.27696,-11.228059 998.14601,-12.170771 1002.1919,-12.170827 C 1009.2622,-12.170771 1015.2818,-9.5684915 1020.2507,-4.3639801 C 1025.2195,0.84062766 1027.704,7.5672754 1027.704,15.815983 C 1027.704,21.236609 1026.5354,26.27423 1024.1983,30.928861 C 1021.8611,35.583518 1018.65,39.14815 1014.565,41.622769 C 1010.4798,44.097392 1005.8448,45.334702 1000.6599,45.334703 C 991.82198,45.334702 984.61415,42.084307 979.03645,35.583509 C 973.45872,29.082728 970.66986,18.369191 970.66987,3.442867 C 970.66986,-13.250963 973.75332,-25.388389 979.92024,-32.969446 C 985.30155,-39.568358 992.54865,-42.867853 1001.6616,-42.867939 C 1008.4569,-42.867853 1014.0248,-40.962788 1018.3653,-37.152738 C 1022.7056,-33.342527 1025.3079,-28.079048 1026.1721,-21.362285 L 1026.1721,-21.362285 z M 982.86622,15.874903 C 982.86621,19.527942 983.64198,23.023835 985.19355,26.362592 C 986.74508,29.701383 988.91528,32.244744 991.70416,33.99268 C 994.493,35.740637 997.41933,36.61461 1000.4832,36.614602 C 1004.961,36.61461 1008.8104,34.807744 1012.0314,31.193999 C 1015.2523,27.58028 1016.8628,22.670318 1016.8628,16.464099 C 1016.8628,10.493613 1015.272,5.7898692 1012.0903,2.3528544 C 1008.9086,-1.0840774 1004.9021,-2.802564 1000.0707,-2.8026107 C 995.27859,-2.802564 991.21314,-1.0840774 987.87439,2.3528544 C 984.53559,5.7898692 982.86621,10.297214 982.86622,15.874903 L 982.86622,15.874903 z"
       style="font-size:120.66734314000002826px;font-style:normal;font-weight:normal;fill:#ffff00;fill-opacity:1;stroke:none;stroke-width:1.99999997999999990;stroke-linecap:butt;stroke-linejoin:miter;stroke-opacity:1;font-family:Bitstream Vera Sans;stroke-miterlimit:4;stroke-dasharray:none"
       transform="matrix(0.9300448,9.5315817e-2,-0.1020776,1.0647556,0,0)" />
    <path
       id="text2488"
       d="M 963.01036,91.346962 L 954.24492,91.346962 L 954.24492,35.491599 C 952.13469,37.504458 949.36709,39.517262 945.94209,41.530016 C 942.51706,43.54287 939.44104,45.052473 936.71403,46.05883 L 936.71403,37.585566 C 941.61617,35.280635 945.90149,32.488681 949.57001,29.209696 C 953.23849,25.930836 955.83565,22.749307 957.36152,19.665101 L 963.01036,19.665101 L 963.01036,91.346962 z"
       style="font-size:99.73128510000000801px;font-style:normal;font-weight:normal;fill:#ffff00;fill-opacity:1;stroke:none;stroke-width:1.99999993999999992;stroke-linecap:butt;stroke-linejoin:miter;stroke-opacity:1;font-family:Bitstream Vera Sans;stroke-miterlimit:4;stroke-dasharray:none"
       transform="matrix(0.88896,0.3055799,-9.1071076e-2,1.0936044,0,0)" />
    <path
       id="text2492"
       d="M 1010.9757,149.1146 L 1001.598,149.84805 C 1000.7597,146.14595 999.57226,143.45665 998.03555,141.78013 C 995.48591,139.0909 992.34257,137.74624 988.60552,137.74617 C 985.60185,137.74624 982.96494,138.58447 980.69477,140.26085 C 977.72604,142.42633 975.38599,145.58714 973.67463,149.74327 C 971.96324,153.89953 971.07263,159.81949 971.00279,167.50317 C 973.27297,164.04554 976.04959,161.47847 979.33265,159.80198 C 982.61568,158.12558 986.05589,157.28735 989.6533,157.2873 C 995.93995,157.28735 1001.2924,159.6012 1005.7106,164.22885 C 1010.1286,168.85659 1012.3377,174.83767 1012.3378,182.17211 C 1012.3377,186.99193 1011.2987,191.47119 1009.2206,195.60991 C 1007.1425,199.74866 1004.2873,202.91819 1000.655,205.11853 C 997.02266,207.31887 992.90139,208.41904 988.29119,208.41904 C 980.4328,208.41904 974.02388,205.52891 969.06439,199.74865 C 964.10489,193.9684 961.62514,184.44233 961.62515,171.17041 C 961.62514,156.32689 964.36683,145.53475 969.85023,138.79396 C 974.63508,132.92645 981.07893,129.99267 989.1818,129.99259 C 995.22397,129.99267 1000.1747,131.68658 1004.0341,135.07433 C 1007.8934,138.46223 1010.2072,143.14231 1010.9757,149.1146 L 1010.9757,149.1146 z M 972.46968,182.2245 C 972.46967,185.47265 973.15946,188.58106 974.53905,191.54976 C 975.91861,194.51848 977.84828,196.77994 980.32805,198.33414 C 982.80777,199.88836 985.40976,200.66546 988.13402,200.66546 C 992.11555,200.66546 995.5383,199.05887 998.40228,195.84566 C 1001.2662,192.63248 1002.6981,188.26673 1002.6982,182.74839 C 1002.6981,177.43966 1001.2836,173.25727 998.45467,170.20121 C 995.62562,167.14522 992.06317,165.61721 987.7673,165.61716 C 983.50629,165.61721 979.89145,167.14522 976.92276,170.20121 C 973.95403,173.25727 972.46967,177.26503 972.46968,182.2245 L 972.46968,182.2245 z"
       style="font-size:107.29283142000001305px;font-style:normal;font-weight:normal;fill:#ffff00;fill-opacity:1;stroke:none;stroke-width:2;stroke-linecap:butt;stroke-linejoin:miter;stroke-opacity:1;font-family:Bitstream Vera Sans;stroke-miterlimit:4;stroke-dasharray:none"
       transform="matrix(0.9266931,0.1905837,-9.6267671e-2,1.0593075,0,0)" />
    <path
       id="text2496"
       d="M 602.82184,271.69131 L 596.5479,271.69131 L 596.5479,231.71236 C 595.03748,233.15308 593.05655,234.59376 590.60508,236.03441 C 588.15358,237.47513 585.9519,238.55564 584.00001,239.27595 L 584.00001,233.21113 C 587.50876,231.56136 590.57602,229.563 593.20179,227.21603 C 595.82754,224.86916 597.68648,222.59196 598.77863,220.38441 L 602.82184,220.38441 L 602.82184,271.69131 z"
       style="font-size:71.38352203000000884px;font-style:normal;font-weight:normal;fill:#ffff00;fill-opacity:1;stroke:none;stroke-width:1.99999992999999998;stroke-linecap:butt;stroke-linejoin:miter;stroke-opacity:1;font-family:Bitstream Vera Sans;stroke-miterlimit:4;stroke-dasharray:none"
       transform="matrix(0.855546,0.2811358,0,1.1688443,0,0)" />
    <path
       id="text2500"
       d="M 623.0736,238.96818 C 620.34923,237.9709 618.33028,236.54791 617.01675,234.6992 C 615.70321,232.85056 615.04645,230.63701 615.04645,228.05856 C 615.04645,224.16665 616.44512,220.89499 619.24246,218.24355 C 622.03979,215.59221 625.76146,214.26652 630.40749,214.26646 C 635.07781,214.26652 638.83597,215.62262 641.68199,218.33477 C 644.52794,221.04702 645.95093,224.34909 645.95097,228.24099 C 645.95093,230.72215 645.30025,232.88096 643.99891,234.71744 C 642.69751,236.55399 640.72113,237.9709 638.06977,238.96818 C 641.35357,240.0385 643.85293,241.76555 645.56786,244.14934 C 647.28271,246.53318 648.14015,249.37917 648.14019,252.68731 C 648.14015,257.26036 646.52256,261.10365 643.28742,264.21721 C 640.0522,267.33077 635.79539,268.88755 630.51696,268.88755 C 625.23848,268.88755 620.98167,267.32469 617.74649,264.19896 C 614.51131,261.07325 612.89372,257.17522 612.89372,252.50487 C 612.89372,249.02646 613.77549,246.11358 615.53903,243.76623 C 617.30256,241.41892 619.81408,239.81957 623.0736,238.96818 L 623.0736,238.96818 z M 621.76007,227.83964 C 621.76006,230.36944 622.57493,232.43704 624.2047,234.04243 C 625.83444,235.64789 627.95068,236.45061 630.55344,236.45058 C 633.08319,236.45061 635.15686,235.65398 636.77448,234.06068 C 638.39204,232.46744 639.20084,230.51539 639.20087,228.20451 C 639.20084,225.79641 638.36772,223.77138 636.70151,222.12942 C 635.03524,220.48755 632.96156,219.66659 630.48047,219.66654 C 627.97501,219.66659 625.89525,220.4693 624.24119,222.07469 C 622.58709,223.68016 621.76006,225.60181 621.76007,227.83964 L 621.76007,227.83964 z M 619.64382,252.54136 C 619.64381,254.41437 620.08774,256.22656 620.9756,257.97793 C 621.86344,259.72931 623.18305,261.08541 624.93444,262.04623 C 626.6858,263.00706 628.57096,263.48747 630.58993,263.48747 C 633.72779,263.48747 636.31837,262.478 638.36167,260.45904 C 640.40491,258.4401 641.42655,255.87385 641.42658,252.76028 C 641.42655,249.59809 640.3745,246.98319 638.27045,244.91557 C 636.16634,242.84799 633.53319,241.8142 630.37101,241.81417 C 627.28175,241.8142 624.72158,242.83583 622.69049,244.87908 C 620.65936,246.92238 619.64381,249.47647 619.64382,252.54136 L 619.64382,252.54136 z"
       style="font-size:74.72544098000000190px;font-style:normal;font-weight:normal;fill:#ffff00;fill-opacity:1;stroke:none;stroke-width:1.99999999000000006;stroke-linecap:butt;stroke-linejoin:miter;stroke-opacity:1;font-family:Bitstream Vera Sans;stroke-miterlimit:4;stroke-dasharray:none"
       transform="matrix(0.865575,0.3002563,0,1.1553014,0,0)" />
    <path
       id="text2504"
       d="M 926.77301,246.27511 L 926.77301,254.20952 L 882.33115,254.20952 C 882.27,252.2221 882.59105,250.31111 883.29429,248.47656 C 884.42559,245.44957 886.2372,242.46844 888.72913,239.53316 C 891.22104,236.5979 894.82133,233.204 899.53002,229.35143 C 906.83759,223.35862 911.77557,218.61173 914.34397,215.11078 C 916.91229,211.60989 918.19647,208.30007 918.19651,205.1813 C 918.19647,201.90975 917.02695,199.15029 914.68794,196.90291 C 912.34887,194.65566 909.29894,193.532 905.53815,193.53194 C 901.56328,193.532 898.38341,194.72445 895.99852,197.1093 C 893.61359,199.49426 892.40585,202.79644 892.37529,207.01584 L 883.89052,206.14444 C 884.47145,199.81531 886.65762,194.99199 890.44902,191.67446 C 894.2404,188.35706 899.33125,186.69832 905.72161,186.69826 C 912.17306,186.69832 917.2792,188.487 921.04006,192.0643 C 924.80083,195.64172 926.68124,200.0752 926.68128,205.36475 C 926.68124,208.05547 926.13087,210.70027 925.03019,213.29916 C 923.92942,215.89814 922.10252,218.63467 919.54949,221.50875 C 916.99638,224.3829 912.754,228.32717 906.82233,233.34157 C 901.86904,237.49989 898.68916,240.3205 897.2827,241.80341 C 895.8762,243.28634 894.71432,244.77691 893.79706,246.27511 L 926.77301,246.27511 z"
       style="font-size:93.92871094000001619px;font-style:normal;font-weight:normal;fill:#ffff00;fill-opacity:1;stroke:none;stroke-width:2;stroke-linecap:butt;stroke-linejoin:miter;stroke-opacity:1;font-family:Bitstream Vera Sans;stroke-miterlimit:4;stroke-dasharray:none"
       transform="matrix(0.9232398,0.3732972,-5.4041491e-2,1.0612914,0,0)" />
    <path
       id="text2508"
       d="M 881.78291,422.83034 C 881.7829,414.42308 882.64789,407.65682 884.37785,402.53155 C 886.10781,397.40639 888.6785,393.45334 892.08994,390.6724 C 895.50135,387.89159 899.79392,386.50116 904.96767,386.50108 C 908.78326,386.50116 912.13001,387.26913 915.00793,388.80501 C 917.88577,390.34103 920.26245,392.55603 922.13797,395.45001 C 924.0134,398.34413 925.48467,401.86872 926.5518,406.02381 C 927.61883,410.17901 928.15237,415.78118 928.15242,422.83034 C 928.15237,431.173 927.29548,437.90692 925.58173,443.03212 C 923.86789,448.15735 921.30528,452.11848 917.8939,454.91552 C 914.48243,457.71257 910.1737,459.11109 904.96767,459.11109 C 898.11246,459.11109 892.72856,456.65357 888.81594,451.73853 C 884.12725,445.82109 881.7829,436.18504 881.78291,422.83034 L 881.78291,422.83034 z M 890.75609,422.83034 C 890.75608,434.50358 892.12226,442.27225 894.85465,446.13636 C 897.587,450.00049 900.95801,451.93255 904.96767,451.93255 C 908.97727,451.93255 912.34827,449.99241 915.08068,446.1121 C 917.81302,442.23183 919.1792,434.47125 919.17924,422.83034 C 919.1792,411.12483 917.81302,403.34808 915.08068,399.50007 C 912.34827,395.65217 908.94494,393.7282 904.87066,393.72813 C 900.861,393.7282 897.65976,395.42582 895.26693,398.82102 C 892.25969,403.15407 890.75608,411.15717 890.75609,422.83034 L 890.75609,422.83034 z"
       style="font-size:99.33553313999999546px;font-style:normal;font-weight:normal;fill:#ffff00;fill-opacity:1;stroke:none;stroke-width:2.00000005000000014;stroke-linecap:butt;stroke-linejoin:miter;stroke-opacity:1;font-family:Bitstream Vera Sans;stroke-miterlimit:4;stroke-dasharray:none"
       transform="matrix(0.9721863,0.1752931,-1.018028e-2,1.0267738,0,0)" />
    <path
       id="text2512"
       d="M 776.64409,133.95882 L 776.64409,141.39133 L 735.01347,141.39133 C 734.95618,139.52962 735.25692,137.73952 735.91568,136.02102 C 736.97541,133.1855 738.67243,130.39295 741.00673,127.64334 C 743.34101,124.89376 746.71356,121.71454 751.12439,118.10567 C 757.96972,112.49194 762.59534,108.04533 765.00127,104.76583 C 767.40713,101.4864 768.61008,98.385942 768.61011,95.464451 C 768.61008,92.399844 767.51454,89.814939 765.32348,87.709726 C 763.13237,85.604621 760.27537,84.552042 756.75247,84.551985 C 753.02904,84.552042 750.05031,85.669065 747.81628,87.903057 C 745.58222,90.137157 744.45087,93.230451 744.42225,97.18295 L 736.47419,96.366663 C 737.01838,90.437894 739.06625,85.919679 742.61782,82.812005 C 746.16937,79.704449 750.9382,78.150641 756.92432,78.150578 C 762.96768,78.150641 767.75083,79.826176 771.27379,83.177186 C 774.79667,86.528313 776.55813,90.681348 776.55817,95.636301 C 776.55813,98.156809 776.04258,100.63431 775.01152,103.06881 C 773.98038,105.50338 772.26904,108.06681 769.87751,110.75909 C 767.48589,113.45143 763.51187,117.1462 757.95542,121.84341 C 753.31545,125.73868 750.33673,128.38087 749.01923,129.76998 C 747.7017,131.15911 746.61332,132.55539 745.75408,133.95882 L 776.64409,133.95882 z"
       style="font-size:87.98712920999997777px;font-style:normal;font-weight:normal;fill:#ffff00;fill-opacity:1;stroke:none;stroke-width:2.00000000999999994;stroke-linecap:butt;stroke-linejoin:miter;stroke-opacity:1;font-family:Bitstream Vera Sans;stroke-miterlimit:4;stroke-dasharray:none"
       transform="matrix(0.8780752,0.2364683,-4.470732e-2,1.1268148,0,0)" />
    <path
       id="text2516"
       d="M 795.76742,145.99324 L 787.51608,145.99324 L 787.51608,93.413843 C 785.52962,95.308647 782.92434,97.203398 779.70022,99.098102 C 776.47607,100.9929 773.58046,102.41396 771.01339,103.3613 L 771.01339,95.384997 C 775.62802,93.215252 779.662,90.587049 783.11536,87.50038 C 786.56868,84.413828 789.01352,81.418898 790.44989,78.515583 L 795.76742,78.515583 L 795.76742,145.99324 z"
       style="font-size:93.88195800999999108px;font-style:normal;font-weight:normal;fill:#ffff00;fill-opacity:1;stroke:none;stroke-width:1.99999996000000002;stroke-linecap:butt;stroke-linejoin:miter;stroke-opacity:1;font-family:Bitstream Vera Sans;stroke-miterlimit:4;stroke-dasharray:none"
       transform="matrix(0.9047777,0.2432286,-5.7986412e-2,1.0896556,0,0)" />
  </g>
  <path
     style="fill:none;fill-rule:evenodd;stroke:#666666;stroke-width:2;stroke-linecap:butt;stroke-linejoin:miter;stroke-opacity:1;stroke-miterlimit:4;stroke-dasharray:none"
     d="M 299.37178,308.1506 L 740.43793,448.4915"
     id="path3342"
     sodipodi:nodetypes="cc" />
  <path
     style="fill:none;fill-rule:evenodd;stroke:#666666;stroke-width:4;stroke-linecap:butt;stroke-linejoin:miter;stroke-opacity:1;stroke-miterlimit:4;stroke-dasharray:none"
     d="M 487.44317,45.518994 L 490.43649,644.93098"
     id="path3346"
     sodipodi:nodetypes="cc" />
  <g
     id="g3928"
     style="stroke:none;fill:#0000ff">
    <path
       id="text2420"
       d="M 385.82573,332.65093 L 385.82573,338.88919 L 350.88424,338.88919 C 350.83616,337.32662 351.08857,335.82415 351.64148,334.38177 C 352.53094,332.00186 353.95529,329.65801 355.91452,327.3502 C 357.87373,325.04242 360.70439,322.37403 364.40649,319.34503 C 370.15192,314.6333 374.03431,310.90116 376.05365,308.14861 C 378.07295,305.39611 379.08261,302.79383 379.08264,300.34176 C 379.08261,297.76957 378.1631,295.6 376.3241,293.83305 C 374.48505,292.06619 372.0871,291.18274 369.13026,291.18269 C 366.0051,291.18274 363.50499,292.12028 361.62992,293.99532 C 359.75482,295.87045 358.80526,298.46672 358.78123,301.78414 L 352.11026,301.09901 C 352.567,296.12286 354.28583,292.33063 357.26674,289.72229 C 360.24763,287.11405 364.25022,285.8099 369.2745,285.80985 C 374.34682,285.8099 378.36142,287.21622 381.31832,290.02879 C 384.27515,292.84147 385.75358,296.3272 385.75362,300.486 C 385.75358,302.60152 385.32087,304.68094 384.45548,306.72426 C 383.59002,308.76766 382.15366,310.91919 380.14639,313.17888 C 378.13906,315.43863 374.80357,318.53973 370.13992,322.48219 C 366.2455,325.75159 363.74539,327.96923 362.63958,329.13514 C 361.53375,330.30107 360.62025,331.47299 359.89907,332.65093 L 385.82573,332.65093 z"
       style="font-size:73.84951782000000264px;font-style:normal;font-weight:normal;fill:#0000ff;fill-opacity:1;stroke:none;stroke-width:2.00000006000000008;stroke-linecap:butt;stroke-linejoin:miter;stroke-opacity:1;font-family:Bitstream Vera Sans;stroke-miterlimit:4;stroke-dasharray:none"
       transform="matrix(0.8381368,0.3919016,6.8597172e-2,1.2251977,0,0)" />
    <path
       id="text2464"
       d="M 703.36941,322.60739 L 694.43986,322.60739 L 694.43986,265.70636 C 692.29013,267.7569 689.47072,269.80739 685.9816,271.85782 C 682.49245,273.90836 679.35884,275.44622 676.58078,276.47142 L 676.58078,267.83953 C 681.57469,265.49144 685.94024,262.64722 689.67744,259.30685 C 693.41459,255.96661 696.06038,252.72552 697.61481,249.58357 L 703.36941,249.58357 L 703.36941,322.60739 z"
       style="font-size:101.59835815000000991px;font-style:normal;font-weight:normal;fill:#0000ff;fill-opacity:1;stroke:none;stroke-width:1.99999999000000006;stroke-linecap:butt;stroke-linejoin:miter;stroke-opacity:1;font-family:Bitstream Vera Sans;stroke-miterlimit:4;stroke-dasharray:none"
       transform="matrix(0.936207,0.5373327,-3.7555334e-2,1.0465851,0,0)" />
    <path
       id="text2468"
       d="M 729.88578,344.85477 L 739.259,343.605 C 740.33516,348.91651 742.16641,352.7439 744.75274,355.08719 C 747.33903,357.4305 750.48947,358.60215 754.20406,358.60214 C 758.61291,358.60215 762.33615,357.07466 765.37381,354.01968 C 768.41138,350.96473 769.93018,347.18073 769.93023,342.66768 C 769.93018,338.36298 768.5242,334.81331 765.71228,332.01867 C 762.90028,329.2241 759.32458,327.8268 754.98516,327.82676 C 753.21464,327.8268 751.0102,328.17396 748.37184,328.86823 L 749.41331,320.64063 C 750.03816,320.71011 750.54154,320.74483 750.92344,320.74478 C 754.9157,320.74483 758.50876,319.70336 761.70263,317.62038 C 764.89643,315.53749 766.49334,312.3263 766.49338,307.9868 C 766.49334,304.55001 765.33037,301.70334 763.00447,299.44676 C 760.67849,297.19031 757.67559,296.06206 753.99577,296.06199 C 750.3506,296.06206 747.31299,297.20767 744.88292,299.49883 C 742.45281,301.79013 740.89061,305.22697 740.19632,309.80937 L 730.8231,308.14302 C 731.96871,301.85956 734.57238,296.9907 738.63411,293.53643 C 742.69582,290.0823 747.74694,288.3552 753.78747,288.35513 C 757.95331,288.3552 761.78938,289.24913 765.2957,291.03691 C 768.80193,292.82483 771.48371,295.2636 773.34104,298.35322 C 775.19827,301.44297 776.12691,304.72359 776.12696,308.19509 C 776.12691,311.49313 775.24167,314.49602 773.47122,317.20379 C 771.70068,319.91165 769.07965,322.06402 765.60814,323.66089 C 770.12112,324.7024 773.62739,326.86344 776.12696,330.14403 C 778.62643,333.42469 779.87619,337.5298 779.87625,342.45939 C 779.87619,349.1248 777.4461,354.77476 772.58597,359.40928 C 767.72575,364.04381 761.58109,366.36108 754.15199,366.36108 C 747.45185,366.36108 741.88869,364.36493 737.46246,360.37264 C 733.03622,356.38035 730.51066,351.20773 729.88578,344.85477 L 729.88578,344.85477 z"
       style="font-size:106.64632416000000603px;font-style:normal;font-weight:normal;fill:#0000ff;fill-opacity:1;stroke:none;stroke-width:1.99999996000000002;stroke-linecap:butt;stroke-linejoin:miter;stroke-opacity:1;font-family:Bitstream Vera Sans;stroke-miterlimit:4;stroke-dasharray:none"
       transform="matrix(0.9506061,0.4855623,-7.7568847e-2,1.0123389,0,0)" />
    <path
       id="text2480"
       d="M 407.92796,37.082207 L 400.3454,37.082207 L 400.3454,-11.23558 C 398.51995,-9.4943522 396.12582,-7.7531724 393.16303,-6.0120357 C 390.2002,-4.2708128 387.53928,-2.964928 385.18027,-2.0943773 L 385.18027,-9.4241898 C 389.42088,-11.418075 393.1279,-13.83326 396.30137,-16.669752 C 399.47479,-19.506136 401.72147,-22.258323 403.04142,-24.926322 L 407.92796,-24.926322 L 407.92796,37.082207 z"
       style="font-size:86.27273560000000430px;font-style:normal;font-weight:normal;fill:#0000ff;fill-opacity:1;stroke:none;stroke-width:2.00000007000000002;stroke-linecap:butt;stroke-linejoin:miter;stroke-opacity:1;font-family:Bitstream Vera Sans;stroke-miterlimit:4;stroke-dasharray:none"
       transform="matrix(0.7604348,0.1628315,4.899307e-2,1.3255279,0,0)" />
    <path
       id="text2484"
       d="M 405.35809,54.00539 L 414.03648,53.270711 C 414.67931,57.495126 416.17162,60.671077 418.51342,62.798572 C 420.85519,64.926085 423.67911,65.989838 426.98518,65.989832 C 430.96466,65.989838 434.33194,64.489871 437.08701,61.489926 C 439.84202,58.490003 441.21954,54.510498 441.21958,49.551402 C 441.21954,44.837242 439.89559,41.117936 437.24772,38.393473 C 434.59979,35.669076 431.13303,34.306861 426.84743,34.306824 C 424.1842,34.306861 421.78119,34.91144 419.6384,36.120561 C 417.49557,37.329754 415.81194,38.898597 414.58749,40.827095 L 406.82744,39.816912 L 413.34772,5.2411078 L 446.8215,5.2411078 L 446.8215,13.138901 L 419.95982,13.138901 L 416.33235,31.230358 C 420.37306,28.414134 424.61276,27.006001 429.05147,27.005957 C 434.92886,27.006001 439.88794,29.041671 443.92871,33.112971 C 447.96939,37.184349 449.98976,42.418928 449.9898,48.816723 C 449.98976,54.908449 448.21428,60.173639 444.66338,64.61231 C 440.34711,70.061176 434.45438,72.785606 426.98518,72.785607 C 420.86284,72.785606 415.86551,71.071358 411.99315,67.642858 C 408.12078,64.214366 405.90909,59.668548 405.35809,54.00539 L 405.35809,54.00539 z"
       style="font-size:94.03884124999999017px;font-style:normal;font-weight:normal;fill:#0000ff;fill-opacity:1;stroke:none;stroke-width:2.00000005000000014;stroke-linecap:butt;stroke-linejoin:miter;stroke-opacity:1;font-family:Bitstream Vera Sans;stroke-miterlimit:4;stroke-dasharray:none"
       transform="matrix(0.7988168,7.3211892e-2,7.0506717e-2,1.2583134,0,0)" />
    <path
       id="text2544"
       d="M 784.5098,34.626653 L 784.5098,45.220757 L 725.17057,45.220757 C 725.08892,42.56713 725.51758,40.015566 726.45656,37.566057 C 727.96708,33.524388 730.38596,29.543949 733.71322,25.624727 C 737.04044,21.705545 741.84759,17.173967 748.13467,12.029982 C 757.89182,4.0283107 764.48506,-2.3097738 767.91441,-6.9842909 C 771.34367,-11.658704 773.05832,-16.078012 773.05837,-20.24223 C 773.05832,-24.610441 771.49676,-28.294899 768.37369,-31.295615 C 765.25053,-34.296177 761.17824,-35.796497 756.15679,-35.796578 C 750.84951,-35.796497 746.6037,-34.204321 743.41937,-31.020046 C 740.235,-27.835618 738.62241,-23.426516 738.5816,-17.792726 L 727.25265,-18.95624 C 728.02832,-27.406955 730.94731,-33.847102 736.00962,-38.276701 C 741.07191,-42.706132 747.86928,-44.920889 756.40174,-44.920979 C 765.01579,-44.920889 771.83357,-42.532625 776.8551,-37.756181 C 781.87652,-32.979571 784.38726,-27.059943 784.38732,-19.997279 C 784.38726,-16.404612 783.65241,-12.873248 782.18277,-9.4031758 C 780.71301,-5.9329944 778.27371,-2.279155 774.86488,1.5583533 C 771.45593,5.3959489 765.79146,10.662377 757.87145,17.357652 C 751.25776,22.909883 747.01195,26.675991 745.13403,28.655988 C 743.25605,30.636018 741.7047,32.626238 740.47997,34.626653 L 784.5098,34.626653 z"
       style="font-size:125.41458892999999364px;font-style:normal;font-weight:normal;fill:#0000ff;fill-opacity:1;stroke:none;stroke-width:2;stroke-linecap:butt;stroke-linejoin:miter;stroke-opacity:1;font-family:Bitstream Vera Sans;stroke-miterlimit:4;stroke-dasharray:none"
       transform="matrix(0.8739834,0.1661058,-5.902255e-2,1.1329689,0,0)" />
    <path
       id="text2548"
       d="M 855.94701,-37.454586 L 844.25538,-36.540157 C 843.21027,-41.15577 841.72976,-44.508672 839.81387,-46.598875 C 836.63509,-49.951696 832.71612,-51.628147 828.05693,-51.628234 C 824.31209,-51.628147 821.0245,-50.583087 818.19416,-48.493049 C 814.49287,-45.793226 811.57541,-41.852477 809.44177,-36.67079 C 807.30808,-31.48896 806.19771,-24.10822 806.11063,-14.528547 C 808.94099,-18.839373 812.40275,-22.039871 816.49593,-24.130051 C 820.58906,-26.220113 824.87816,-27.265173 829.36325,-27.265236 C 837.20117,-27.265173 843.87432,-24.380371 849.38272,-18.610819 C 854.891,-12.841161 857.64517,-5.3842183 857.64523,3.7600304 C 857.64517,9.7691596 856.34973,15.353702 853.75891,20.513674 C 851.16797,25.673675 847.60823,29.62531 843.07969,32.368591 C 838.55104,35.111878 833.41282,36.48352 827.66503,36.483521 C 817.86755,36.48352 809.87719,32.880238 803.69393,25.673666 C 797.51064,18.467111 794.419,6.5904338 794.41901,-9.956403 C 794.419,-28.462639 797.83722,-41.917793 804.67367,-50.321907 C 810.63921,-57.637245 818.67312,-61.294957 828.77541,-61.295053 C 836.30851,-61.294957 842.4809,-59.183064 847.29259,-54.959368 C 852.10417,-50.735491 854.98897,-44.90057 855.94701,-37.454586 L 855.94701,-37.454586 z M 807.93949,3.8253467 C 807.93947,7.8749874 808.79947,11.75042 810.51949,15.451657 C 812.23946,19.152932 814.64528,21.972419 817.73694,23.910124 C 820.82855,25.847852 824.0726,26.81671 827.46908,26.816702 C 832.43308,26.81671 836.70041,24.813677 840.27108,20.807598 C 843.84166,16.801546 845.62697,11.358523 845.62703,4.4785102 C 845.62697,-2.1401762 843.86343,-7.3545928 840.3364,-11.164755 C 836.80927,-14.974826 832.36776,-16.879884 827.01187,-16.879936 C 821.69944,-16.879884 817.19261,-14.974826 813.49138,-11.164755 C 809.7901,-7.3545928 807.93947,-2.3578971 807.93949,3.8253467 L 807.93949,3.8253467 z"
       style="font-size:133.76788329999999405px;font-style:normal;font-weight:normal;fill:#0000ff;fill-opacity:1;stroke:none;stroke-width:1.99999996000000002;stroke-linecap:butt;stroke-linejoin:miter;stroke-opacity:1;font-family:Bitstream Vera Sans;stroke-miterlimit:4;stroke-dasharray:none"
       transform="matrix(0.8730455,0.1805042,-0.1634541,1.1116212,0,0)" />
    <path
       id="text2552"
       d="M 546.04443,338.24461 L 546.04443,345.49854 L 505.41406,345.49854 C 505.35816,343.68156 505.65167,341.93447 506.2946,340.25726 C 507.32887,337.48987 508.98511,334.76441 511.26333,332.08087 C 513.54153,329.39735 516.83304,326.29452 521.13789,322.77236 C 527.81875,317.29351 532.33323,312.95374 534.68135,309.75303 C 537.02941,306.5524 538.20345,303.52644 538.20349,300.67514 C 538.20345,297.68417 537.13423,295.16137 534.99583,293.10674 C 532.85735,291.05222 530.069,290.02493 526.63075,290.02487 C 522.99678,290.02493 520.08962,291.11511 517.90927,293.29543 C 515.72888,295.47585 514.62472,298.49482 514.59678,302.35235 L 506.83969,301.55568 C 507.3708,295.76936 509.36947,291.3597 512.83571,288.3267 C 516.30193,285.29381 520.95618,283.77733 526.79847,283.77727 C 532.69662,283.77733 537.36485,285.41261 540.80316,288.68311 C 544.24139,291.95372 545.96053,296.00696 545.96057,300.84287 C 545.96053,303.30281 545.45737,305.72079 544.45109,308.09679 C 543.44472,310.47287 541.7745,312.9747 539.44043,315.6023 C 537.10628,318.22995 533.22774,321.83595 527.80479,326.42029 C 523.27631,330.22198 520.36915,332.80068 519.08331,334.15641 C 517.79744,335.51217 516.73521,336.8749 515.89662,338.24461 L 546.04443,338.24461 z"
       style="font-size:85.87306212999997967px;font-style:normal;font-weight:normal;fill:#0000ff;fill-opacity:1;stroke:none;stroke-width:1.99999993999999992;stroke-linecap:butt;stroke-linejoin:miter;stroke-opacity:1;font-family:Bitstream Vera Sans;stroke-miterlimit:4;stroke-dasharray:none"
       transform="matrix(0.8881952,0.4484782,0,1.1258787,0,0)" />
    <path
       id="text2556"
       d="M 562.22754,303.81587 L 562.22754,296.44933 L 602.63706,296.44933 L 602.63706,302.41069 C 598.66278,306.64047 594.72403,312.26118 590.82079,319.27283 C 586.91749,326.28456 583.90133,333.49496 581.77229,340.90406 C 580.23935,346.12736 579.25998,351.84743 578.83419,358.06427 L 570.95668,358.06427 C 571.04183,353.15325 572.007,347.22028 573.8522,340.26534 C 575.69736,333.31045 578.34449,326.60392 581.79359,320.14574 C 585.24263,313.68765 588.91171,308.24436 592.80082,303.81587 L 562.22754,303.81587 z"
       style="font-size:87.20622252999999091px;font-style:normal;font-weight:normal;fill:#0000ff;fill-opacity:1;stroke:none;stroke-width:2.00000007000000002;stroke-linecap:butt;stroke-linejoin:miter;stroke-opacity:1;font-family:Bitstream Vera Sans;stroke-miterlimit:4;stroke-dasharray:none"
       transform="matrix(0.877712,0.4091404,0,1.1393258,0,0)" />
    <path
       id="text2416"
       d="M 590.96724,9.784996 L 581.62323,9.784996 L 581.62323,-49.757135 C 579.37372,-47.611415 576.42343,-45.465755 572.77237,-43.320148 C 569.12127,-41.174434 565.84222,-39.565189 562.9352,-38.492407 L 562.9352,-47.524954 C 568.16091,-49.982024 572.72909,-52.958262 576.63976,-56.453678 C 580.55037,-59.948961 583.31896,-63.340489 584.94555,-66.62827 L 590.96724,-66.62827 L 590.96724,9.784996 z"
       style="font-size:106.31410979999999711px;font-style:normal;font-weight:normal;fill:#0000ff;fill-opacity:1;stroke:none;stroke-width:1.99999999000000006;stroke-linecap:butt;stroke-linejoin:miter;stroke-opacity:1;font-family:Bitstream Vera Sans;stroke-miterlimit:4;stroke-dasharray:none"
       transform="matrix(0.8292814,0.2302256,0,1.2058633,0,0)" />
    <path
       id="text2540"
       d="M 401.93533,209.85191 L 409.74636,209.19066 C 410.32495,212.99287 411.66811,215.8514 413.77587,217.76627 C 415.88359,219.68115 418.42528,220.63858 421.40093,220.63858 C 424.98268,220.63858 428.01342,219.28853 430.49314,216.58841 C 432.9728,213.88831 434.21265,210.30653 434.21269,205.84307 C 434.21265,201.60006 433.02102,198.25247 430.63779,195.8003 C 428.2545,193.34819 425.13422,192.12212 421.27695,192.12209 C 418.87989,192.12212 416.71704,192.66628 414.78841,193.75455 C 412.85974,194.8429 411.34438,196.25494 410.2423,197.9907 L 403.25783,197.08148 L 409.12644,165.96131 L 439.25473,165.96131 L 439.25473,173.06977 L 415.07771,173.06977 L 411.81278,189.3531 C 415.44965,186.81834 419.26562,185.55094 423.2607,185.5509 C 428.55069,185.55094 433.01413,187.38315 436.65105,191.04755 C 440.2879,194.71202 442.10634,199.42344 442.10638,205.18182 C 442.10634,210.66471 440.50831,215.40368 437.31231,219.39873 C 433.42742,224.30302 428.12363,226.75516 421.40093,226.75516 C 415.89048,226.75516 411.39259,225.21224 407.90726,222.1264 C 404.4219,219.04056 402.43126,214.94907 401.93533,209.85191 L 401.93533,209.85191 z"
       style="font-size:84.64025116000000537px;font-style:normal;font-weight:normal;fill:#0000ff;fill-opacity:1;stroke:none;stroke-width:2.00000001999999988;stroke-linecap:butt;stroke-linejoin:miter;stroke-opacity:1;font-family:Bitstream Vera Sans;stroke-miterlimit:4;stroke-dasharray:none"
       transform="matrix(0.8087166,0.1856655,9.994241e-2,1.2594719,0,0)" />
    <path
       id="text2536"
       d="M 403.59145,195.36255 L 403.59145,202.189 L 365.35544,202.189 C 365.30282,200.4791 365.57904,198.83496 366.18408,197.25659 C 367.15741,194.65229 368.71605,192.08744 370.86,189.56204 C 373.00395,187.03666 376.10149,184.11668 380.15266,180.80208 C 386.43981,175.6461 390.68825,171.56207 392.89799,168.54999 C 395.10768,165.53797 396.21254,162.69033 396.21257,160.00706 C 396.21254,157.19235 395.20633,154.81822 393.19394,152.88467 C 391.18149,150.95121 388.55745,149.98446 385.32182,149.98441 C 381.902,149.98446 379.16616,151.0104 377.1143,153.06223 C 375.0624,155.11416 374.02331,157.95522 373.99701,161.58543 L 366.69705,160.8357 C 367.19687,155.39038 369.07776,151.24058 372.33973,148.38631 C 375.60168,145.53215 379.98165,144.10504 385.47966,144.10498 C 391.03023,144.10504 395.42335,145.64395 398.65904,148.72172 C 401.89466,151.79959 403.51249,155.61398 403.51253,160.1649 C 403.51249,162.47988 403.03898,164.75536 402.092,166.99135 C 401.14494,169.2274 399.57315,171.5818 397.37662,174.05455 C 395.18002,176.52736 391.53004,179.92085 386.42668,184.23504 C 382.16506,187.81269 379.42922,190.23943 378.21915,191.51527 C 377.00906,192.79113 376.00942,194.07355 375.22025,195.36255 L 403.59145,195.36255 z"
       style="font-size:80.81253814999998042px;font-style:normal;font-weight:normal;fill:#0000ff;fill-opacity:1;stroke:none;stroke-width:2.00000001999999988;stroke-linecap:butt;stroke-linejoin:miter;stroke-opacity:1;font-family:Bitstream Vera Sans;stroke-miterlimit:4;stroke-dasharray:none"
       transform="matrix(0.809429,0.2461728,5.6761692e-2,1.2527018,0,0)" />
    <path
       id="text2472"
       d="M 572.66747,237.68532 L 564.3792,237.68532 L 564.3792,184.87063 C 562.38386,186.77391 559.76691,188.67714 556.52837,190.58032 C 553.28979,192.4836 550.38123,193.91102 547.80267,194.8626 L 547.80267,186.8506 C 552.43794,184.67115 556.48998,182.03118 559.95879,178.9307 C 563.42756,175.83034 565.88334,172.82201 567.32614,169.9057 L 572.66747,169.9057 L 572.66747,237.68532 z"
       style="font-size:94.30207824999999389px;font-style:normal;font-weight:normal;fill:#0000ff;fill-opacity:1;stroke:none;stroke-width:2.00000007000000002;stroke-linecap:butt;stroke-linejoin:miter;stroke-opacity:1;font-family:Bitstream Vera Sans;stroke-miterlimit:4;stroke-dasharray:none"
       transform="matrix(0.839149,0.2168048,0,1.1916834,0,0)" />
    <path
       id="text2476"
       d="M 608.96242,221.01785 L 608.96242,203.88263 L 577.91399,203.88263 L 577.91399,195.82762 L 610.57342,149.45024 L 617.74971,149.45024 L 617.74971,195.82762 L 627.41573,195.82762 L 627.41573,203.88263 L 617.74971,203.88263 L 617.74971,221.01785 L 608.96242,221.01785 z M 608.96242,195.82762 L 608.96242,163.55873 L 586.55483,195.82762 L 608.96242,195.82762 z"
       style="font-size:99.97985076999999876px;font-style:normal;font-weight:normal;fill:#0000ff;fill-opacity:1;stroke:none;stroke-width:1.99999996000000002;stroke-linecap:butt;stroke-linejoin:miter;stroke-opacity:1;font-family:Bitstream Vera Sans;stroke-miterlimit:4;stroke-dasharray:none"
       transform="matrix(0.8597292,0.2703761,0,1.163157,0,0)" />
    <path
       id="text2424"
       d="M 775.44169,240.13151 L 785.71105,238.76226 C 786.89011,244.58158 788.89643,248.7749 791.73003,251.34223 C 794.56359,253.90957 798.01524,255.19324 802.08497,255.19324 C 806.91534,255.19324 810.99455,253.51972 814.32263,250.17266 C 817.65061,246.82563 819.31463,242.67985 819.31468,237.73533 C 819.31463,233.01906 817.77422,229.13002 814.69346,226.06819 C 811.61261,223.00644 807.69505,221.47555 802.94075,221.47551 C 801.00095,221.47555 798.58575,221.85589 795.69515,222.61655 L 796.83619,213.60233 C 797.52079,213.67845 798.07229,213.71648 798.4907,213.71643 C 802.86465,213.71648 806.80123,212.57544 810.30046,210.29331 C 813.79961,208.01129 815.5492,204.49309 815.54924,199.73869 C 815.5492,195.97333 814.27504,192.85449 811.72676,190.38217 C 809.1784,187.90999 805.8884,186.67386 801.85676,186.67379 C 797.8631,186.67386 794.53507,187.92901 791.87266,190.43922 C 789.21022,192.94958 787.49866,196.715 786.73798,201.73551 L 776.46863,199.90985 C 777.72376,193.02565 780.57636,187.69129 785.02642,183.90677 C 789.47646,180.1224 795.0105,178.23018 801.62856,178.23009 C 806.19268,178.23018 810.39551,179.20957 814.23705,181.16827 C 818.0785,183.12713 821.01668,185.79907 823.05158,189.18408 C 825.08638,192.56923 826.10381,196.1635 826.10386,199.9669 C 826.10381,203.58025 825.13392,206.87025 823.19421,209.8369 C 821.25439,212.80365 818.38278,215.1618 814.57936,216.91135 C 819.52382,218.05243 823.36531,220.42009 826.10386,224.01432 C 828.8423,227.60863 830.21155,232.10623 830.21161,237.50712 C 830.21155,244.80979 827.54912,250.99993 822.22433,256.07754 C 816.89943,261.15517 810.1673,263.69398 802.02792,263.69398 C 794.68721,263.69398 788.59216,261.50699 783.74275,257.133 C 778.89333,252.75903 776.12631,247.09187 775.44169,240.13151 L 775.44169,240.13151 z"
       style="font-size:116.84249115000000074px;font-style:normal;font-weight:normal;fill:#0000ff;fill-opacity:1;stroke:none;stroke-width:2.00000006000000008;stroke-linecap:butt;stroke-linejoin:miter;stroke-opacity:1;font-family:Bitstream Vera Sans;stroke-miterlimit:4;stroke-dasharray:none"
       transform="matrix(0.8930436,0.2469527,-5.8761201e-2,1.1035169,0,0)" />
  </g>
  <path
     inkscape:connector-curvature="0"
     style="fill:none;stroke:#666666;stroke-width:4;stroke-linecap:butt;stroke-linejoin:miter;stroke-miterlimit:4;stroke-opacity:1;stroke-dasharray:none"
     d="M 47.587018,367.65768 496.40318,262.06411 931.53413,369.77428"
     id="path2398"
     sodipodi:nodetypes="ccc" />
  <path
     inkscape:connector-curvature="0"
     style="fill:none;stroke:#666666;stroke-width:4;stroke-linecap:butt;stroke-linejoin:miter;stroke-miterlimit:4;stroke-opacity:1;stroke-dasharray:none"
     d="M 284.31346,23.510656 763.3427,75.513972 721.30423,759.43296"
     id="path3330"
     sodipodi:nodetypes="ccc" />
  <path
     inkscape:connector-curvature="0"
     style="fill:none;stroke:#666666;stroke-width:4;stroke-linecap:butt;stroke-linejoin:miter;stroke-miterlimit:4;stroke-opacity:1;stroke-dasharray:none"
     d="M 700.37303,24.093931 199.67166,74.437343 250.50662,757.24666"
     id="path3332"
     sodipodi:nodetypes="ccc" />
  <path
     inkscape:connector-curvature="0"
     style="fill:none;stroke:#666666;stroke-width:4;stroke-linecap:butt;stroke-linejoin:miter;stroke-miterlimit:4;stroke-opacity:1;stroke-dasharray:none"
     d="M 687.4313,309.20339 488.53001,368.18926"
     id="path3340"
     sodipodi:nodetypes="cc" />
  <path
     inkscape:connector-curvature="0"
     style="fill:none;stroke:#666666;stroke-width:4;stroke-linecap:butt;stroke-linejoin:miter;stroke-miterlimit:4;stroke-opacity:1;stroke-dasharray:none"
     d="M 9.1193623,44.992087 471.42947,117.56707 967.32087,45.81012"
     id="path3334"
     sodipodi:nodetypes="ccc" />
  <path
     inkscape:connector-curvature="0"
     style="fill:none;stroke:#666666;stroke-width:4;stroke-linecap:butt;stroke-linejoin:miter;stroke-miterlimit:4;stroke-opacity:1;stroke-dasharray:none"
     d="m 488.51175,368.46067 -262.3441,78.31404"
     id="path3344"
     sodipodi:nodetypes="cc" />
  <path
     inkscape:connector-curvature="0"
     style="fill:none;stroke:#666666;stroke-width:4;stroke-linecap:butt;stroke-linejoin:miter;stroke-miterlimit:4;stroke-opacity:1;stroke-dasharray:none"
     d="M 47.533559,367.74177 475.43424,557.03578 931.62118,369.7446"
     id="path3336"
     sodipodi:nodetypes="ccc" />
  <path
     style="fill:none;stroke:#666666;stroke-width:4;stroke-linecap:butt;stroke-linejoin:miter;stroke-miterlimit:4;stroke-opacity:1;stroke-dasharray:none"
     d="M 284.68461,23.769289 312.73894,556.55059 721.17991,759.57374"
     id="path2394"
     sodipodi:nodetypes="ccc"
     inkscape:connector-curvature="0" />
  <path
     style="fill:none;stroke:#666666;stroke-width:4;stroke-linecap:butt;stroke-linejoin:miter;stroke-miterlimit:4;stroke-opacity:1;stroke-dasharray:none"
     d="M 700.43648,23.443272 676.02223,558.12475 250.31624,757.36749"
     id="path2396"
     sodipodi:nodetypes="ccc"
     inkscape:connector-curvature="0" />
  <path
     inkscape:connector-curvature="0"
     style="fill:none;stroke:#666666;stroke-width:4;stroke-linecap:butt;stroke-linejoin:miter;stroke-miterlimit:4;stroke-opacity:1;stroke-dasharray:none"
     d="m 471.50747,117.55063 7.16224,793.80771"
     id="path3338"
     sodipodi:nodetypes="cc" />
  <g
     id="g3910"
     style="fill:#ff0000">
    <path
       id="text2452"
       d="M 480.55536,10.006496 C 480.55536,-2.2085776 481.8121,-12.039404 484.32561,-19.486012 C 486.8391,-26.932459 490.57411,-32.675917 495.53065,-36.716402 C 500.48715,-40.756692 506.72391,-42.776885 514.24095,-42.776989 C 519.7847,-42.776885 524.64726,-41.661081 528.82864,-39.429572 C 533.00992,-37.197862 536.46304,-33.979647 539.18802,-29.774916 C 541.91287,-25.570003 544.05051,-20.449047 545.60096,-14.412032 C 547.15127,-8.3748664 547.92647,-0.23536521 547.92654,10.006496 C 547.92647,22.127709 546.68146,31.911554 544.19153,39.35806 C 541.70145,46.804609 537.97819,52.559812 533.02172,56.623686 C 528.06514,60.687568 521.80489,62.719507 514.24095,62.719509 C 504.28089,62.719507 496.45851,59.148932 490.77379,52.007774 C 483.9615,43.410214 480.55536,29.409802 480.55536,10.006496 L 480.55536,10.006496 z M 493.59267,10.006496 C 493.59265,26.966777 495.57761,38.254022 499.54755,43.868264 C 503.51744,49.48254 508.41524,52.28967 514.24095,52.289661 C 520.06659,52.28967 524.96438,49.470795 528.93435,43.833028 C 532.90421,38.195296 534.88917,26.919796 534.88923,10.006496 C 534.88917,-7.0006649 532.90421,-18.299655 528.93435,-23.890508 C 524.96438,-29.481192 520.0196,-32.276576 514.10001,-32.27667 C 508.27429,-32.276576 503.62315,-29.810061 500.14656,-24.877116 C 495.77728,-18.581543 493.59265,-6.9536837 493.59267,10.006496 L 493.59267,10.006496 z"
       style="font-size:144.32653808999998546px;font-style:normal;font-weight:normal;fill:#ff0000;fill-opacity:1;stroke:none;stroke-width:2.00000007999999996;stroke-linecap:butt;stroke-linejoin:miter;stroke-opacity:1;font-family:Bitstream Vera Sans;stroke-miterlimit:4;stroke-dasharray:none"
       transform="matrix(0.8347998,0.3489746,0,1.1978919,0,0)" />
    <g
       id="g3894"
       style="fill:#ff0000">
      <path
         inkscape:connector-curvature="0"
         transform="matrix(0.7383996,0.2105444,0.1717363,1.4032485,0,0)"
         style="font-size:92.30761719000000198px;font-style:normal;font-weight:normal;fill:#ff0000;fill-opacity:1;stroke:none;font-family:Bitstream Vera Sans"
         d="m 26.83342,68.001995 c -3.365395,-1.231933 -5.859381,-2.989743 -7.481965,-5.273434 -1.622602,-2.283608 -2.433899,-5.017978 -2.433893,-8.203118 -6e-6,-4.807634 1.727755,-8.849093 5.18329,-12.124389 3.455511,-3.275173 8.052858,-4.91279 13.792056,-4.912857 5.769195,6.7e-5 10.411614,1.675244 13.927272,5.025537 3.515579,3.350416 5.273389,7.429435 5.273433,12.237069 -4.4e-5,3.064948 -0.803829,5.73171 -2.411356,8.000294 -1.607611,2.268667 -4.049013,4.018965 -7.324213,5.250898 4.056448,1.322148 7.143883,3.455558 9.262312,6.400235 2.118342,2.944735 3.177535,6.460354 3.177582,10.546866 -4.7e-5,5.649047 -1.998241,10.396635 -5.994587,14.242777 -3.996428,3.846147 -9.254832,5.769227 -15.775227,5.769227 -6.520447,0 -11.77885,-1.93059 -15.775228,-5.791763 -3.996396,-3.861166 -5.99459,-8.676362 -5.994586,-14.445601 -4e-6,-4.296848 1.089237,-7.895099 3.267726,-10.794763 2.178474,-2.899604 5.280932,-4.875262 9.307384,-5.926978 l 0,0 z M 25.210825,54.255011 c -1.5e-5,3.125044 1.006594,5.679125 3.019829,7.662253 2.0132,1.983211 4.627378,2.974796 7.842542,2.974757 3.124969,3.9e-5 5.686563,-0.984034 7.684789,-2.952221 1.998161,-1.968104 2.997257,-4.379457 2.997294,-7.234069 -3.7e-5,-2.974705 -1.029181,-5.476203 -3.087438,-7.504501 -2.058322,-2.028185 -4.619916,-3.042305 -7.684789,-3.042365 -3.094972,6e-5 -5.664078,0.991644 -7.707326,2.974757 -2.043283,1.983226 -3.064916,4.35702 -3.064901,7.121389 l 0,0 z m -2.614181,30.513797 c -1.2e-5,2.313717 0.548365,4.552294 1.645131,6.71574 1.096739,2.16347 2.726845,3.838647 4.890321,5.025536 2.163439,1.186905 4.492161,1.780353 6.986172,1.780347 3.876169,6e-6 7.076284,-1.246987 9.600353,-3.740982 2.523998,-2.493977 3.786015,-5.664043 3.786054,-9.510209 -3.9e-5,-3.906224 -1.299616,-7.136386 -3.898734,-9.690497 -2.599189,-2.554053 -5.851888,-3.831094 -9.758105,-3.831126 -3.816125,3.2e-5 -6.978679,1.262049 -9.487673,3.786054 -2.509026,2.524063 -3.763531,5.679105 -3.763519,9.465137 l 0,0 z"
         id="text2440" />
      <path
         inkscape:connector-curvature="0"
         transform="matrix(0.9071254,0.5439053,0,1.1023834,0,0)"
         style="font-size:112.25480652000000248px;font-style:normal;font-weight:normal;fill:#ff0000;fill-opacity:1;stroke:none;font-family:Bitstream Vera Sans"
         d="m 461.80352,531.03143 9.48246,-0.87699 c 0.80389,4.45805 2.33862,7.69195 4.6042,9.70171 2.26554,2.00978 5.17056,3.01466 8.71509,3.01466 3.0329,0 5.69127,-0.69428 7.97514,-2.08286 2.28379,-1.38856 4.15653,-3.24302 5.61822,-5.56341 1.46161,-2.32035 2.68574,-5.45376 3.6724,-9.40024 0.98656,-3.94643 1.47987,-7.96597 1.47992,-12.05862 -5e-5,-0.43846 -0.0183,-1.0962 -0.0548,-1.97323 -1.97328,3.14258 -4.66819,5.69133 -8.08476,7.64626 -3.41665,1.95499 -7.11645,2.93247 -11.09941,2.93244 -6.65054,3e-5 -12.27789,-2.4117 -16.88207,-7.23518 -4.60421,-4.8234 -6.90631,-11.18158 -6.90631,-19.07454 0,-8.14865 2.40259,-14.7078 7.20777,-19.67748 4.80516,-4.96954 10.82533,-7.45434 18.06053,-7.45442 5.22537,8e-5 10.00313,1.40692 14.33331,4.22052 4.3301,2.81375 7.61881,6.82415 9.86615,12.03121 2.24723,5.20719 3.37087,12.74382 3.37093,22.60992 -6e-5,10.26813 -1.11456,18.44423 -3.34352,24.52833 -2.22907,6.08414 -5.54519,10.71574 -9.94837,13.89482 -4.40326,3.17909 -9.56471,4.76864 -15.48436,4.76864 -6.28513,0 -11.41917,-1.74485 -15.40215,-5.23454 -3.98301,-3.48968 -6.37646,-8.39535 -7.18036,-14.717 l 0,0 z m 40.39638,-35.46331 c -5e-5,-5.66384 -1.50737,-10.15841 -4.52198,-13.48373 -3.0147,-3.32519 -6.64142,-4.98781 -10.88017,-4.98789 -4.38498,8e-5 -8.20354,1.7906 -11.45569,5.37157 -3.25219,3.58111 -4.87828,8.22185 -4.87826,13.92223 -2e-5,5.11583 1.54385,9.27239 4.63161,12.46971 3.08771,3.1974 6.89714,4.79608 11.42828,4.79604 4.56763,4e-5 8.32224,-1.59864 11.26385,-4.79604 2.94153,-3.19732 4.41231,-7.62794 4.41236,-13.29189 l 0,0 z"
         id="text2444" />
      <path
         inkscape:connector-curvature="0"
         transform="matrix(0.8063213,0.3079043,0.05529407,1.2613152,0,0)"
         style="font-size:131.96232605000000149px;font-style:normal;font-weight:normal;fill:#ff0000;fill-opacity:1;stroke:none;font-family:Bitstream Vera Sans"
         d="m 467.96677,77.241211 -11.59825,0 0,-73.9066348 c -2.79221,2.6633734 -6.45425,5.3266729 -10.98612,7.9899068 -4.53194,2.663365 -8.60206,4.66084 -12.21039,5.992429 l 0,-11.2116424 c 6.48641,-3.0498364 12.15666,-6.74409052 17.01077,-11.0827735 4.85405,-4.3385186 8.29057,-8.5482501 10.30956,-12.6292071 l 7.47443,0 0,94.847922 z"
         id="text2448" />
      <path
         inkscape:connector-curvature="0"
         transform="matrix(0.7884462,0.5393162,0.1853802,1.3951219,0,0)"
         style="font-size:72.88257599000000653px;font-style:normal;font-weight:normal;fill:#ff0000;fill-opacity:1;stroke:none;font-family:Bitstream Vera Sans"
         d="m 43.870608,443.94376 0,6.15658 -34.4839923,0 c -0.047452,-1.54211 0.2016584,-3.02491 0.7473313,-4.4484 0.877813,-2.34875 2.283506,-4.66191 4.217082,-6.9395 1.933562,-2.27757 4.727154,-4.91102 8.380785,-7.90036 5.670205,-4.65003 9.501756,-8.33331 11.494664,-11.04982 1.992854,-2.71646 2.989294,-5.28467 2.989324,-7.70463 -3e-5,-2.53851 -0.907502,-4.67967 -2.72242,-6.42349 -1.814972,-1.74373 -4.181519,-2.61561 -7.099645,-2.61566 -3.084241,5e-5 -5.551618,0.92532 -7.402137,2.7758 -1.850545,1.85058 -2.787674,4.41286 -2.811388,7.68684 l -6.583632,-0.67616 c 0.450768,-4.91099 2.147089,-8.65357 5.088969,-11.22776 2.941864,-2.57409 6.892038,-3.86116 11.850536,-3.86121 5.005907,5e-5 8.967944,1.38795 11.886124,4.1637 2.918114,2.77585 4.377188,6.21594 4.377225,10.32029 -3.7e-5,2.08782 -0.427083,4.14001 -1.281139,6.15658 -0.854128,2.01664 -2.271683,4.14001 -4.25267,6.37011 -1.98105,2.23016 -5.272862,5.29065 -9.875447,9.1815 -3.843434,3.22658 -6.310811,5.41519 -7.402137,6.56584 -1.091353,1.15066 -1.992894,2.30724 -2.704626,3.46975 l 25.587193,0 z"
         id="text2520" />
      <path
         inkscape:connector-curvature="0"
         transform="matrix(0.7527737,0.175979,0.1188167,1.3561967,0,0)"
         style="font-size:108.67613983000001099px;font-style:normal;font-weight:normal;fill:#ff0000;fill-opacity:1;stroke:none;font-family:Bitstream Vera Sans"
         d="m 259.03052,100.17504 0,9.18016 -51.41952,0 c -0.0708,-2.29946 0.30069,-4.51048 1.11435,-6.63306 1.30892,-3.502252 3.40497,-6.951442 6.28815,-10.347585 2.88316,-3.396109 7.04872,-7.32288 12.49669,-11.780324 8.45492,-6.933728 14.16819,-12.425901 17.13985,-16.476534 2.97157,-4.050542 4.45737,-7.880028 4.45742,-11.488469 -5e-5,-3.785208 -1.35319,-6.977921 -4.05944,-9.578146 -2.70633,-2.600092 -6.23512,-3.900172 -10.58637,-3.900242 -4.59895,7e-5 -8.27809,1.379746 -11.03742,4.139033 -2.75937,2.759418 -4.15674,6.58006 -4.1921,11.461936 l -9.81694,-1.008226 c 0.67215,-7.322841 3.20155,-12.903454 7.58823,-16.741856 4.38665,-3.838258 10.27681,-5.757423 17.67049,-5.757501 7.46437,7.8e-5 13.37221,2.069593 17.72355,6.208549 4.35123,4.139101 6.52688,9.268666 6.52693,15.388711 -5e-5,3.113172 -0.63683,6.173223 -1.91032,9.180163 -1.2736,3.007034 -3.38734,6.173213 -6.34121,9.498549 -2.95397,3.325411 -7.86243,7.888955 -14.72541,13.690646 -5.73099,4.811203 -9.41013,8.074668 -11.03742,9.790405 -1.62733,1.715765 -2.97163,3.44036 -4.0329,5.173791 l 38.15339,0 z"
         id="text2528" />
      <path
         inkscape:connector-curvature="0"
         transform="matrix(0.7737083,0.1723714,0.07689039,1.3096069,0,0)"
         style="font-size:116.46339417000000083px;font-style:normal;font-weight:normal;fill:#ff0000;fill-opacity:1;stroke:none;font-family:Bitstream Vera Sans"
         d="m 294.9051,115.29713 0,-19.960282 -36.16734,0 0,-9.383037 38.04395,-54.023547 8.35943,0 0,54.023547 11.25964,0 0,9.383037 -11.25964,0 0,19.960282 -10.23604,0 z m 0,-29.343319 0,-37.589016 -26.1019,37.589016 26.1019,0 z"
         id="text2532" />
      <path
         inkscape:connector-curvature="0"
         transform="matrix(0.8506196,0.3639115,0.03178783,1.1892131,0,0)"
         style="font-size:120.26962279999999339px;font-style:normal;font-weight:normal;fill:#ff0000;fill-opacity:1;stroke:none;font-family:Bitstream Vera Sans"
         d="m 460.99569,335.21053 0,10.1595 -56.90492,0 c -0.0783,-2.54477 0.33278,-4.99166 1.23324,-7.34068 1.44855,-3.87586 3.7682,-7.69301 6.95896,-11.45145 3.19073,-3.75841 7.80067,-8.10408 13.82983,-13.03704 9.35688,-7.67342 15.67964,-13.75149 18.9683,-18.23424 3.28858,-4.48265 4.93289,-8.72066 4.93294,-12.71405 -5e-5,-4.18901 -1.49755,-7.72232 -4.4925,-10.59993 -2.99503,-2.87747 -6.90027,-4.31624 -11.71571,-4.31632 -5.08957,8e-5 -9.16119,1.52694 -12.21489,4.58058 -3.05374,3.05379 -4.60017,7.28202 -4.6393,12.68469 l -10.8642,-1.11579 c 0.74385,-8.10403 3.54309,-14.27998 8.39773,-18.52786 4.85461,-4.24772 11.37313,-6.37162 19.55556,-6.37171 8.26066,9e-5 14.79875,2.29038 19.61428,6.87088 4.81543,4.58065 7.22317,10.25744 7.22323,17.03036 -6e-5,3.44529 -0.70477,6.83178 -2.11412,10.1595 -1.40946,3.32782 -3.74869,6.83176 -7.01768,10.51184 -3.2691,3.68017 -8.70119,8.73055 -16.2963,15.15116 -6.34237,5.32446 -10.414,8.93606 -12.21489,10.83483 -1.80093,1.89881 -3.28864,3.80738 -4.46313,5.72573 l 42.22357,0 z"
         id="text2401" />
      <path
         inkscape:connector-curvature="0"
         transform="matrix(0.8471638,0.3211537,0,1.1804093,0,0)"
         style="font-size:125.06279755000002751px;font-style:normal;font-weight:normal;fill:#ff0000;fill-opacity:1;stroke:none;font-family:Bitstream Vera Sans"
         d="m 485.67372,340.46967 10.99185,-1.46558 c 1.26201,6.22873 3.40948,10.71707 6.44244,13.46501 3.03291,2.74797 6.72739,4.12195 11.08345,4.12195 5.1702,0 9.5364,-1.79126 13.09861,-5.3738 3.56213,-3.58251 5.34321,-8.01995 5.34326,-13.31234 -5e-5,-5.04808 -1.64882,-9.21073 -4.94633,-12.48796 -3.2976,-3.27716 -7.49078,-4.91576 -12.57956,-4.9158 -2.07627,4e-5 -4.66138,0.40715 -7.75536,1.22131 l 1.22132,-9.6484 c 0.73276,0.0815 1.32306,0.12219 1.77091,0.12214 4.68168,5e-5 8.89521,-1.22127 12.64062,-3.66395 3.74533,-2.44258 5.61801,-6.2083 5.61806,-11.29718 -5e-5,-4.03027 -1.36385,-7.36853 -4.09141,-10.01479 -2.72765,-2.64611 -6.24911,-3.9692 -10.56439,-3.96928 -4.27463,8e-5 -7.8368,1.34353 -10.68652,4.03034 -2.84975,2.68697 -4.68173,6.71731 -5.49592,12.09103 l -10.99185,-1.9541 c 1.34344,-7.36854 4.39673,-13.07819 9.15988,-17.12896 4.76311,-4.05062 10.68649,-6.07596 17.77015,-6.07605 4.88523,9e-5 9.38374,1.04838 13.49555,3.14489 4.11171,2.09667 7.2566,4.95659 9.43466,8.57974 2.17796,3.62332 3.26697,7.47046 3.26703,11.54144 -6e-5,3.86757 -1.03818,7.38903 -3.11436,10.56439 -2.07629,3.17548 -5.14994,5.69953 -9.22094,7.57216 5.29232,1.22137 9.40408,3.75559 12.3353,7.6027 2.93109,3.84718 4.39667,8.6612 4.39673,14.44206 -6e-5,7.81645 -2.84979,14.44208 -8.54921,19.87693 -5.69953,5.43486 -12.90529,8.15228 -21.6173,8.15228 -7.85716,0 -14.38102,-2.34085 -19.57159,-7.02257 -5.19061,-4.6817 -8.1523,-10.74756 -8.88508,-18.19761 l 0,0 z"
         id="text2405" />
      <path
         inkscape:connector-curvature="0"
         transform="matrix(0.8002352,0.3876023,0.09180565,1.2940997,0,0)"
         style="font-size:99.30734253000001388px;font-style:normal;font-weight:normal;fill:#ff0000;fill-opacity:1;stroke:none;font-family:Bitstream Vera Sans"
         d="m 224.32013,251.21183 0,-8.38876 46.01693,0 0,6.78859 c -4.52577,4.81672 -9.01109,11.21738 -13.45595,19.20201 -4.44495,7.9847 -7.87964,16.19565 -10.30411,24.63287 -1.74566,5.94811 -2.86093,12.46192 -3.3458,19.54144 l -8.97064,0 c 0.097,-5.5925 1.19607,-12.34876 3.29732,-20.26879 2.10121,-7.91999 5.11566,-15.55714 9.04336,-22.91148 3.92766,-7.35425 8.10587,-13.55288 12.53465,-18.59588 l -34.81576,0 z"
         id="text2409" />
      <path
         inkscape:connector-curvature="0"
         transform="matrix(0.8050447,0.3787152,0.2063123,1.3392221,0,0)"
         style="font-size:88.92942046999998240px;font-style:normal;font-weight:normal;fill:#ff0000;fill-opacity:1;stroke:none;font-family:Bitstream Vera Sans"
         d="m 78.393687,299.35759 0,7.5121 -42.076469,0 c -0.0579,-1.88164 0.246059,-3.69091 0.911874,-5.42782 1.071086,-2.86588 2.786275,-5.68835 5.145575,-8.4674 2.359281,-2.77903 5.76795,-5.9923 10.226015,-9.63981 6.918636,-5.67386 11.593795,-10.16809 14.025489,-13.48271 2.431629,-3.31455 3.647459,-6.44821 3.647496,-9.40099 -3.7e-5,-3.09742 -1.107311,-5.71001 -3.321827,-7.83777 -2.214582,-2.12765 -5.10218,-3.1915 -8.662802,-3.19156 -3.76331,6e-5 -6.773939,1.12904 -9.031894,3.38696 -2.257987,2.25803 -3.401447,5.38445 -3.430383,9.37928 l -8.033175,-0.82503 c 0.550014,-5.99226 2.619821,-10.55887 6.209427,-13.69982 3.589585,-3.14084 8.409485,-4.71129 14.459715,-4.71135 6.108077,6e-5 10.942452,1.69354 14.503138,5.08044 3.560608,3.38702 5.340931,7.58453 5.340976,12.59254 -4.5e-5,2.54751 -0.521115,5.05154 -1.563212,7.51211 -1.042184,2.46065 -2.771848,5.05152 -5.188997,7.77264 -2.417225,2.72117 -6.433809,6.45551 -12.049763,11.20302 -4.689659,3.937 -7.700287,6.60748 -9.031894,8.01147 -1.331641,1.404 -2.431679,2.81523 -3.300116,4.2337 l 31.220827,0 z"
         id="text2417" />
      <path
         inkscape:connector-curvature="0"
         transform="matrix(0.8047072,0,0.1032511,1.242688,0,0)"
         style="font-size:96.79447174000000587px;font-style:normal;font-weight:normal;fill:#ff0000;fill-opacity:1;stroke:none;font-family:Bitstream Vera Sans"
         d="m 57.214698,335.25043 -8.507327,0 0,-54.21058 c -2.048085,1.95359 -4.734192,3.90712 -8.058328,5.8606 -3.324176,1.95358 -6.309614,3.41873 -8.956325,4.39546 l 0,-8.22375 c 4.757786,-2.23706 8.916919,-4.9468 12.477413,-8.12923 3.560447,-3.1823 6.081134,-6.27014 7.562068,-9.26353 l 5.482499,0 0,69.57103 z"
         id="text2413" />
      <path
         inkscape:connector-curvature="0"
         transform="matrix(0.8639583,0.6281697,0.08081057,1.2162193,0,0)"
         style="font-size:88.71793364999997777px;font-style:normal;font-weight:normal;fill:#ff0000;fill-opacity:1;stroke:none;font-family:Bitstream Vera Sans"
         d="m 227.16228,486.30685 -7.79748,0 0,-49.68724 c -1.87719,1.79058 -4.33917,3.58111 -7.38594,5.3716 -3.0468,1.79057 -5.78314,3.13347 -8.20901,4.02869 l 0,-7.53756 c 4.3608,-2.05039 8.1729,-4.53403 11.4363,-7.45092 3.26336,-2.91677 5.57372,-5.74696 6.93109,-8.49058 l 5.02504,0 0,63.76601 z"
         id="text2456" />
      <path
         inkscape:connector-curvature="0"
         transform="matrix(0.8518291,0.6371142,0.07967605,1.2335371,0,0)"
         style="font-size:89.98119354000000669px;font-style:normal;font-weight:normal;fill:#ff0000;fill-opacity:1;stroke:none;font-family:Bitstream Vera Sans"
         d="m 280.65913,472.57919 -7.9085,0 0,-50.39474 c -1.90392,1.81608 -4.40096,3.6321 -7.49111,5.44808 -3.09019,1.81607 -5.86549,3.17809 -8.3259,4.08606 l 0,-7.64488 c 4.42289,-2.0796 8.28927,-4.5986 11.59914,-7.55702 3.30983,-2.95831 5.65309,-5.8288 7.02978,-8.61148 l 5.09659,0 0,64.67398 z"
         id="text3348" />
      <path
         inkscape:connector-curvature="0"
         transform="matrix(0.7938339,0.5356559,0.186647,1.3856533,0,0)"
         style="font-size:75.49736022999999818px;font-style:normal;font-weight:normal;fill:#ff0000;fill-opacity:1;stroke:none;font-family:Bitstream Vera Sans"
         d="m 87.177317,447.6121 0,6.37746 -35.721163,0 c -0.04915,-1.59743 0.208893,-3.13343 0.774143,-4.60799 0.909307,-2.43301 2.365431,-4.82917 4.368377,-7.18847 2.002932,-2.35928 4.896749,-5.08721 8.68146,-8.1838 5.873633,-4.81686 9.842647,-8.63227 11.907054,-11.44625 2.064351,-2.81391 3.09654,-5.47426 3.096571,-7.98104 -3.1e-5,-2.62959 -0.94006,-4.84757 -2.820091,-6.65395 -1.880088,-1.80628 -4.331538,-2.70945 -7.354358,-2.7095 -3.194893,5e-5 -5.75079,0.95851 -7.6677,2.87539 -1.916937,1.91697 -2.887686,4.57117 -2.912252,7.96261 l -6.81983,-0.70041 c 0.46694,-5.08718 2.224119,-8.96404 5.271544,-11.63058 3.047408,-2.66644 7.139302,-3.99968 12.275694,-3.99973 5.185502,5e-5 9.289684,1.43774 12.312558,4.31308 3.022807,2.87543 4.534227,6.43894 4.534265,10.69054 -3.8e-5,2.16272 -0.442405,4.28854 -1.327102,6.37746 -0.88477,2.08899 -2.353183,4.28854 -4.405241,6.59865 -2.052123,2.31016 -5.462035,5.48046 -10.229745,9.5109 -3.981324,3.34234 -6.537222,5.60947 -7.667701,6.8014 -1.130507,1.19194 -2.064393,2.39002 -2.80166,3.59423 l 26.505177,0 z"
         id="text3352" />
    </g>
  </g>
</svg>
